<?xml version="1.0" encoding="UTF-8"?>
<svg version="1.1" xmlns="http://www.w3.org/2000/svg" viewBox="0 0 1254 1254" width="1254" height="1254">
  <defs>
    <clipPath id="rounded">
      <rect width="1254" height="1254" rx="220" ry="220"/>
    </clipPath>
  </defs>

  <g clip-path="url(#rounded)">
    <rect width="1254" height="1254" fill="#000000" rx="220" ry="220"/>

    <g transform="scale(1.9) translate(-275, -275)">
      <path d="M0 0 C3.62513751 2.27679164 5.83146752 2.28505549 10.03515625 1.90625 C13.07013578 -3.27956936 13.91675935 -8.12049271 14.72265625 -13.96875 C14.85220703 -14.84789062 14.98175781 -15.72703125 15.11523438 -16.6328125 C15.43106358 -18.78513003 15.73438327 -20.93927687 16.03515625 -23.09375 C20.65515625 -23.09375 25.27515625 -23.09375 30.03515625 -23.09375 C30.09728468 -9.42666748 29.91021548 4.22347231 29.59765625 17.88671875 C29.55263327 19.92222192 29.50779637 21.95772922 29.46313477 23.99324036 C29.34661059 29.28172975 29.22760475 34.57016031 29.10803223 39.85858154 C28.98584893 45.28264007 28.86608142 50.70675192 28.74609375 56.13085938 C28.51144179 66.72270896 28.27416077 77.3144978 28.03515625 87.90625 C23.41515625 87.90625 18.79515625 87.90625 14.03515625 87.90625 C13.80441406 86.32199219 13.57367187 84.73773437 13.3359375 83.10546875 C8.61343067 51.57608079 1.45029335 24.18930408 -24.22265625 3.046875 C-45.47565933 -12.65873405 -68.44675596 -17.40514413 -94.68017578 -13.71142578 C-113.42599388 -9.76182277 -129.30436215 3.38387512 -139.96484375 18.90625 C-154.38646916 41.9369826 -161.88007393 67.13074015 -166.21484375 93.78125 C-166.37799072 94.77817871 -166.5411377 95.77510742 -166.70922852 96.80224609 C-168.79961164 110.34134278 -169.12784893 123.82206001 -169.09521484 137.49072266 C-169.08987971 140.13840534 -169.09518019 142.78591634 -169.1015625 145.43359375 C-169.11059694 161.96450908 -168.43216948 178.18479637 -165.83984375 194.53125 C-165.67944611 195.5497554 -165.67944611 195.5497554 -165.51580811 196.58883667 C-160.76425053 226.35518273 -151.5317967 256.50481406 -126.96484375 275.90625 C-118.33286458 281.77381052 -110.23517282 285.08040022 -100.0703125 287.21484375 C-96.96484375 287.90625 -96.96484375 287.90625 -95.96484375 288.90625 C-78.34510619 289.8134048 -59.78450503 289.3062815 -45.96484375 276.90625 C-40.39534297 270.80042692 -39.84558533 265.14045373 -39.81958008 256.97387695 C-39.81622147 256.30792007 -39.81286285 255.6419632 -39.80940247 254.95582581 C-39.79995651 252.76870827 -39.79795228 250.58166788 -39.796875 248.39453125 C-39.793657 246.86004099 -39.79029252 245.32555103 -39.78678894 243.7910614 C-39.78081281 240.57757863 -39.77894738 237.36412269 -39.77954102 234.15063477 C-39.77964232 230.06015853 -39.76601642 225.96985713 -39.74876881 221.87942219 C-39.73757285 218.70927665 -39.73562416 215.53917229 -39.73615074 212.36900902 C-39.73498103 210.86253446 -39.73061685 209.35605848 -39.72281837 207.84960365 C-39.68292718 199.34488684 -40.02129991 191.22347944 -41.96484375 182.90625 C-42.62484375 182.90625 -43.28484375 182.90625 -43.96484375 182.90625 C-44.39796875 182.16375 -44.83109375 181.42125 -45.27734375 180.65625 C-48.61998762 175.20897851 -54.09883002 172.13823516 -59.96484375 169.90625 C-63.55578969 169.21603778 -67.13093414 168.94585319 -70.77734375 168.71875 C-72.63823199 168.58227636 -74.49892272 168.4430746 -76.359375 168.30078125 C-77.17253174 168.24768799 -77.98568848 168.19459473 -78.82348633 168.13989258 C-80.96484375 167.90625 -80.96484375 167.90625 -83.96484375 166.90625 C-83.96484375 163.60625 -83.96484375 160.30625 -83.96484375 156.90625 C-38.09484375 156.90625 7.77515625 156.90625 55.03515625 156.90625 C55.03515625 160.20625 55.03515625 163.50625 55.03515625 166.90625 C54.22691406 167.05320312 53.41867187 167.20015625 52.5859375 167.3515625 C45.52206245 168.62287392 45.52206245 168.62287392 39.91015625 172.71875 C35.96317189 179.42862341 35.73231478 185.26851186 35.71630859 192.86865234 C35.70626297 193.96192841 35.69621735 195.05520447 35.68586731 196.18161011 C35.65504598 199.7851307 35.63800282 203.38857702 35.62109375 206.9921875 C35.60238129 209.49468626 35.58280782 211.99717873 35.56240845 214.49966431 C35.51633129 220.40681545 35.47892005 226.31398097 35.44573557 232.22121489 C35.40369616 239.60978293 35.34815099 246.9982392 35.29296875 254.38671875 C35.19621237 267.55983607 35.11180651 280.73300142 35.03515625 293.90625 C31.07515625 293.90625 27.11515625 293.90625 23.03515625 293.90625 C22.87080078 292.38644531 22.87080078 292.38644531 22.703125 290.8359375 C22.54355732 289.48430539 22.38336792 288.13274657 22.22265625 286.78125 C22.15240234 286.11609375 22.08214844 285.4509375 22.00976562 284.765625 C21.34863083 279.37076507 20.21400866 274.64933193 15.84765625 271.15625 C15.24953125 270.74375 14.65140625 270.33125 14.03515625 269.90625 C14.03515625 269.24625 14.03515625 268.58625 14.03515625 267.90625 C3.1749628 268.37472893 -4.67545548 273.29827308 -13.77685547 278.64746094 C-19.03247929 281.67111598 -24.50404391 284.276976 -29.96484375 286.90625 C-31.37636719 287.59847656 -31.37636719 287.59847656 -32.81640625 288.3046875 C-38.56218139 291.03682842 -44.33393961 293.13455943 -50.45605469 294.86962891 C-52.59461298 295.50143509 -54.71998224 296.18437714 -56.8125 296.95507812 C-67.54346308 300.65899119 -78.09909852 300.48012452 -89.33959961 300.37280273 C-92.62861227 300.34395812 -95.91599397 300.35220684 -99.20507812 300.36523438 C-116.2597486 300.34951216 -132.5254621 298.72834211 -148.90234375 293.78125 C-149.90249512 293.4826709 -150.90264648 293.1840918 -151.93310547 292.87646484 C-167.42937834 288.07760322 -181.76882174 281.34661245 -194.96484375 271.90625 C-195.80660156 271.30683594 -196.64835937 270.70742188 -197.515625 270.08984375 C-225.52553386 248.86465913 -240.69079033 219.39862218 -248.96484375 185.90625 C-249.18237305 185.07125977 -249.39990234 184.23626953 -249.62402344 183.37597656 C-253.25137832 169.02226223 -253.33182785 154.62002458 -253.33984375 139.90625 C-253.34183777 138.93275604 -253.34383179 137.95926208 -253.34588623 136.95626831 C-253.34232818 121.59858199 -252.4836325 106.8992444 -248.27734375 92.03125 C-248.01606689 91.09708252 -247.75479004 90.16291504 -247.4855957 89.20043945 C-235.36192877 47.18535353 -207.80563201 12.03407215 -169.76171875 -9.5078125 C-117.48911203 -38.3170453 -46.98590654 -40.25631219 0 0 Z " fill="#FAFAFA" transform="translate(572.96484375,480.09375)"/>
      <path d="M0 0 C78.54 0 157.08 0 238 0 C238 11.24361854 238 11.24361854 235.97265625 14.6640625 C235.51914795 15.45893066 235.06563965 16.25379883 234.59838867 17.07275391 C233.83812378 18.33611572 233.83812378 18.33611572 233.0625 19.625 C231.9530371 21.56095971 230.84643973 23.49856345 229.7421875 25.4375 C229.13987305 26.48421875 228.53755859 27.5309375 227.91699219 28.609375 C224.75283881 34.20588061 221.7645307 39.89416453 218.76611328 45.58068848 C216.95673086 49.01003744 215.13802612 52.43443695 213.3203125 55.859375 C212.77966156 56.87871124 212.77966156 56.87871124 212.22808838 57.91864014 C196.03120093 88.45169738 196.03120093 88.45169738 187.91186523 102.92626953 C183.51776953 110.79674648 179.30684968 118.76528393 175.07553101 126.72393799 C170.24804311 135.80281639 165.37703872 144.85517972 160.43798828 153.87402344 C155.98592521 162.00832306 151.59342137 170.17412824 147.20385742 178.34228516 C143.55947554 185.11864372 139.88557912 191.87782771 136.1875 198.625 C132.65039734 205.07931946 129.16303406 211.55827943 125.71875 218.0625 C125.34502762 218.76796967 124.97130524 219.47343933 124.58625793 220.20028687 C122.73669079 223.6934424 120.89065527 227.18840702 119.04956055 230.68603516 C115.3407842 237.71351041 111.50920536 244.63092514 107.4675293 251.47509766 C105.77790861 254.38211099 104.26375207 257.34241163 102.8125 260.375 C98.77546478 268.58607389 94.36824131 276.58642738 89.96484375 284.60546875 C89.24143799 285.92490479 89.24143799 285.92490479 88.50341797 287.27099609 C87.45232577 289.17893838 86.39340746 291.08258073 85.32861328 292.98291016 C84.78833496 293.95405762 84.24805664 294.92520508 83.69140625 295.92578125 C83.19970947 296.80274658 82.7080127 297.67971191 82.20141602 298.58325195 C81.11632715 300.76599828 80.54155696 302.64347753 80 305 C88.03406133 304.98497205 96.06736705 304.94270807 104.10107231 304.86790943 C107.83357268 304.83396561 111.56567799 304.80858134 115.29833984 304.80444336 C139.06303614 304.77764538 139.06303614 304.77764538 162 299 C163.00015137 298.65783447 164.00030273 298.31566895 165.03076172 297.96313477 C184.78112357 291.08516842 199.83776353 275.03451056 209.140625 256.79833984 C211.57686242 251.70023619 213.32353169 246.38520218 215 241 C215.35835937 239.87980469 215.71671875 238.75960937 216.0859375 237.60546875 C218.84671195 228.52397386 220.50505143 219.35475393 222 210 C225.63 210 229.26 210 233 210 C233.01030746 210.93135269 233.02061493 211.86270538 233.03123474 212.82228088 C233.12961096 221.66206632 233.23239644 230.50179133 233.33933926 239.34147739 C233.39416288 243.88444968 233.4475109 248.42742867 233.49731445 252.97045898 C233.54556521 257.36662989 233.59791683 261.76273567 233.65294075 266.15882683 C233.67309337 267.82385542 233.6918455 269.48890167 233.70907402 271.15396309 C233.79116369 279.00524636 233.93846039 286.81071694 234.51977539 294.64428711 C235.0270694 302.41462827 235 310.21311687 235 318 C156.13 318 77.26 318 -4 318 C-4 305.62811791 -4 305.62811791 -1.24609375 300.78515625 C-0.64643799 299.70121582 -0.04678223 298.61727539 0.57104492 297.50048828 C1.2282251 296.36595215 1.88540527 295.23141602 2.5625 294.0625 C3.24634336 292.84235123 3.92769188 291.62080124 4.60668945 290.39794922 C6.01836514 287.85993852 7.44051676 285.32824667 8.87011719 282.80029297 C11.92316575 277.38010093 14.83204948 271.88361936 17.74926758 266.38955688 C22.93971974 256.62774533 28.21385151 246.91171768 33.51904297 237.21191406 C44.81452807 216.54806429 55.88622432 195.76193561 67 175 C71.99696495 165.66503882 76.99618671 156.33129278 82 147 C82.91942383 145.28490234 82.91942383 145.28490234 83.85742188 143.53515625 C89.86914102 132.32600373 95.89704272 121.130617 102.109375 110.03125 C105.9242749 103.18904243 109.62030941 96.28398784 113.3125 89.375 C113.63287231 88.77550537 113.95324463 88.17601074 114.2833252 87.55834961 C114.60393921 86.95837158 114.92455322 86.35839355 115.25488281 85.74023438 C121.4567898 74.1348555 127.7167371 62.5615178 134 51 C134.52223145 50.03803711 135.04446289 49.07607422 135.58251953 48.08496094 C137.13689851 45.22251744 138.69312247 42.36108519 140.25 39.5 C140.92035278 38.26564209 140.92035278 38.26564209 141.60424805 37.00634766 C145.98964162 28.95944809 150.49656782 20.98120706 155 13 C146.80115287 13.06175747 138.60265684 13.13924211 130.40415192 13.23571491 C126.59546607 13.28006129 122.78687846 13.31939094 118.97802734 13.34643555 C115.2884307 13.3728317 111.59921979 13.4134754 107.90986633 13.46318626 C106.51643243 13.47961393 105.12293221 13.49127557 103.72941589 13.49761391 C83.45455675 13.59897587 63.52081017 17.70176112 47 30 C45.85144531 30.83917969 45.85144531 30.83917969 44.6796875 31.6953125 C22.87945941 49.24183755 18.32713029 78.98789044 15 105 C10.71 105 6.42 105 2 105 C1.97494385 103.15140381 1.9498877 101.30280762 1.92407227 99.39819336 C1.83908149 93.18769948 1.75088536 86.97725708 1.66066074 80.76683712 C1.60624026 77.01328112 1.55298035 73.25971724 1.50268555 69.50610352 C1.2245329 47.21634148 1.2245329 47.21634148 0.32704163 24.94456482 C-0.10995201 16.59732504 0 8.41168215 0 0 Z " fill="#FAFAFA" transform="translate(650,456)"/>
      <path d="M0 0 C9.527222 6.09514352 15.05065341 12.98399148 18.61328125 23.671875 C19.47771725 36.45555354 17.84803179 46.6258528 9.61328125 56.671875 C3.18712913 63.66463409 -4.43043443 67.63855858 -13.97265625 68.2734375 C-15.90198536 68.31143844 -17.83213786 68.31861177 -19.76171875 68.296875 C-20.77105469 68.28922119 -21.78039062 68.28156738 -22.8203125 68.27368164 C-32.95920446 67.97196784 -39.77895632 65.23596413 -47.32421875 58.296875 C-55.62514674 49.06462338 -57.93918913 40.20184886 -57.6953125 27.87890625 C-56.76514939 18.21227446 -51.44870377 10.40328141 -44.47265625 3.8828125 C-32.69305528 -5.64411577 -13.412979 -6.75391871 0 0 Z " fill="#FAFAFA" transform="translate(978.38671875,712.328125)"/>
    </g>
  </g>
</svg>